<mxfile host="app.diagrams.net" modified="2023-02-03T04:28:58.052Z" agent="5.0 (Windows NT 10.0; Win64; x64) AppleWebKit/537.36 (KHTML, like Gecko) Chrome/109.0.0.0 Safari/537.36" etag="8_WJxOVf4nCbsV5UE9Ve" version="18.1.1" type="github">
  <diagram id="jgZ1xXmJdKsy7gDhHqvx" name="Page-1">
    <mxGraphModel dx="1278" dy="581" grid="1" gridSize="10" guides="1" tooltips="1" connect="1" arrows="1" fold="1" page="1" pageScale="1" pageWidth="827" pageHeight="1169" math="0" shadow="0">
      <root>
        <mxCell id="0" />
        <mxCell id="1" parent="0" />
        <mxCell id="d7xZA0Z4_qzYf8UE6TXO-1" value="编码器" style="rounded=1;whiteSpace=wrap;html=1;" parent="1" vertex="1">
          <mxGeometry x="340" y="60" width="120" height="60" as="geometry" />
        </mxCell>
        <mxCell id="d7xZA0Z4_qzYf8UE6TXO-2" value="什么编码" style="whiteSpace=wrap;html=1;" parent="1" vertex="1">
          <mxGeometry x="230" y="160" width="120" height="60" as="geometry" />
        </mxCell>
      </root>
    </mxGraphModel>
  </diagram>
</mxfile>
